# xmcd
#
# Track frame offsets: 
#        150
#        17156
#        32898
#        49736
#        70209
#        88946
#        109233
#        127935
#        147011
#        167577
#        186273
#        207964
#        223585
#        246810
#
# Disc length: 3553 seconds
#
# Revision: 0
# Processed by: cddbd v1.5.2PL0 Copyright (c) Steve Scherf et al.
# Submitted via: ExactAudioCopy v0.99pb5
#
DISCID=ca0ddf0e
DTITLE=Aikakone - Greatest Hits [CD1)
DYEAR=2008
DGENRE=Pop
TTITLE0=Tähtikaaren taa
TTITLE1=Taas saan lentää
TTITLE2=Alla vaahterapuun
TTITLE3=Odota
TTITLE4=Matkustanut oon
TTITLE5=Keltainen
TTITLE6=Nti Groove
TTITLE7=Opettelen salaa
TTITLE8=Aarresaari
TTITLE9=Tulisitko
TTITLE10=Perhosten yö
TTITLE11=Magiaa
TTITLE12=Hiljaisuus
TTITLE13=Anna mun bailaa
EXTD=
EXTT0=
EXTT1=
EXTT2=
EXTT3=
EXTT4=
EXTT5=
EXTT6=
EXTT7=
EXTT8=
EXTT9=
EXTT10=
EXTT11=
EXTT12=
EXTT13=
PLAYORDER=
